HIERARCHY
ROOT RootJoint
{
    OFFSET   0.000000   0.000000   0.000000
    CHANNELS 6 Xposition Yposition Zposition Xrotation Yrotation Zrotation
    JOINT pelvis_lowerback
    {
        OFFSET   0.000000   0.093605   0.000000
        CHANNELS 3 Xrotation Yrotation Zrotation
        JOINT lowerback_torso
        {
            OFFSET   0.000000   0.100000   0.000000
            CHANNELS 3 Xrotation Yrotation Zrotation
            JOINT torso_head
            {
                OFFSET   0.000000   0.282350   0.000000
                CHANNELS 3 Xrotation Yrotation Zrotation
                End Site
                {
                    OFFSET   0.000000   0.192650   0.000000
                }
            }
            JOINT rTorso_Clavicle
            {
                OFFSET  -0.001000   0.157500   0.000000
                CHANNELS 3 Xrotation Yrotation Zrotation
                JOINT rShoulder
                {
                    OFFSET  -0.117647   0.000000   0.000000
                    CHANNELS 3 Xrotation Yrotation Zrotation
                    JOINT rElbow
                    {
                        OFFSET  -0.245000   0.000000   0.000000
                        CHANNELS 3 Xrotation Yrotation Zrotation
                        JOINT rWrist
                        {
                            OFFSET  -0.240000   0.000000   0.000000
                            CHANNELS 3 Xrotation Yrotation Zrotation
                            End Site
                            {
                                OFFSET  -0.116353  -0.002500   0.000000
                            }
                        }
                    }
                }
            }
            JOINT lTorso_Clavicle
            {
                OFFSET   0.001000   0.157500   0.000000
                CHANNELS 3 Xrotation Yrotation Zrotation
                JOINT lShoulder
                {
                    OFFSET   0.117647   0.000000   0.000000
                    CHANNELS 3 Xrotation Yrotation Zrotation
                    JOINT lElbow
                    {
                        OFFSET   0.245000   0.000000   0.000000
                        CHANNELS 3 Xrotation Yrotation Zrotation
                        JOINT lWrist
                        {
                            OFFSET   0.240000   0.000000   0.000000
                            CHANNELS 3 Xrotation Yrotation Zrotation
                            End Site
                            {
                                OFFSET   0.116353  -0.002500   0.000000
                            }
                        }
                    }
                }
            }
        }
    }
    JOINT rHip
    {
        OFFSET  -0.100000  -0.051395   0.000000
        CHANNELS 3 Xrotation Yrotation Zrotation
        JOINT rKnee
        {
            OFFSET   0.000000  -0.410000   0.000000
            CHANNELS 3 Xrotation Yrotation Zrotation
            JOINT rAnkle
            {
                OFFSET   0.000000  -0.390000   0.000000
                CHANNELS 3 Xrotation Yrotation Zrotation
                JOINT rToeJoint
                {
                    OFFSET   0.000000  -0.050000   0.130000
                    CHANNELS 3 Xrotation Yrotation Zrotation
                    End Site
                    {
                        OFFSET  -0.010000   0.002000   0.060000
                    }
                }
            }
        }
    }
    JOINT lHip
    {
        OFFSET   0.100000  -0.051395   0.000000
        CHANNELS 3 Xrotation Yrotation Zrotation
        JOINT lKnee
        {
            OFFSET   0.000000  -0.410000   0.000000
            CHANNELS 3 Xrotation Yrotation Zrotation
            JOINT lAnkle
            {
                OFFSET   0.000000  -0.390000   0.000000
                CHANNELS 3 Xrotation Yrotation Zrotation
                JOINT lToeJoint
                {
                    OFFSET   0.000000  -0.050000   0.130000
                    CHANNELS 3 Xrotation Yrotation Zrotation
                    End Site
                    {
                        OFFSET   0.010000   0.002000   0.060000
                    }
                }
            }
        }
    }
}
MOTION
Frames: 8
Frame Time:   0.008333
 -2.399859   0.905625   4.201587   3.249873  -1.838178   0.100683  12.934477   0.098429  -2.675553   4.059439  -1.064915  -0.243821  -6.045800   0.655919  -0.202546   3.811470   1.880139   9.621790   9.683107  10.963324  50.711780   0.000356  20.103870  -0.001244   4.518035   2.614785  -0.834011   4.206497  -3.125017  -7.848444  14.858267 -12.654417 -45.924437  -0.000401 -22.429057   0.000414   4.245676  -5.167766  -0.944276 -19.216705  -2.033880 -11.602896  38.465490   0.005017   0.005727  -1.190100  -6.889371   5.300419 -21.214706  -0.007209  -0.015914 -18.758073   0.076774   1.664513  43.270781   0.001941   0.001910 -14.130235   2.608935   2.262102  -3.885187  -0.000942   0.002500
 -2.399189   0.900219   4.199986   3.437419  -1.657008   0.034812  13.266211   0.070260  -2.690030   4.061691  -1.076887  -0.228534  -6.374606   0.672752  -0.103243   3.684099   1.975045   9.908790   9.721000  10.866690  50.558167   0.000075  19.975492  -0.000597   4.537284   2.641364  -0.843760   4.063422  -3.248579  -8.210663  14.709909 -12.712858 -45.777436  -0.001558 -22.128017  -0.000127   4.175913  -5.224714  -0.928809 -20.140864  -1.747781 -11.631492  40.280613   0.007556   0.008271  -2.769862  -7.053474   5.097760 -20.524908  -0.004393  -0.011134 -19.352685   0.033388   1.641563  44.662411   0.003246   0.002637 -15.588720   2.630778   2.373931  -3.333969  -0.000706   0.002821
 -2.398576   0.894230   4.198283   3.558769  -1.416739  -0.043289  13.674035   0.026758  -2.698067   4.108595  -1.098015  -0.212777  -6.685417   0.690102  -0.005875   3.547917   2.082034  10.210160   9.743908  10.782313  50.412700  -0.000169  19.850133  -0.000024   4.550612   2.617368  -0.892391   3.901379  -3.395318  -8.591162  14.548754 -12.784716 -45.641583  -0.002571 -21.843881  -0.000565   4.103615  -5.222422  -0.859536 -21.071170  -1.466662 -11.657375  42.095269   0.009988   0.010737  -4.291008  -7.195866   4.910351 -20.451478  -0.003390  -0.008703 -19.939266  -0.016676   1.644703  46.042495   0.004452   0.003933 -16.955332   2.649195   2.479121  -2.881779  -0.000542   0.003174
 -2.398002   0.887755   4.196618   3.643447  -1.116389  -0.141965  14.098455  -0.026527  -2.690654   4.190028  -1.127493  -0.193438  -6.967560   0.705808   0.086392   3.419167   2.185313  10.511942   9.763102  10.706550  50.285410  -0.000362  19.732146   0.000448   4.563484   2.581341  -0.932144   3.738733  -3.545771  -8.977284  14.387032 -12.865362 -45.529424  -0.003394 -21.582255  -0.000842   4.034781  -5.223709  -0.799270 -21.940063  -1.199259 -11.677838  43.921034   0.012635   0.013256  -5.755345  -7.322648   4.735511 -21.053365  -0.003865  -0.008891 -20.507216  -0.071968   1.674765  47.334263   0.005594   0.005509 -18.230777   2.664417   2.577468  -2.468785  -0.000389   0.003610
 -2.397435   0.880870   4.195011   3.711496  -0.781023  -0.259906  14.521134  -0.078708  -2.672734   4.288840  -1.157515  -0.172397  -7.226586   0.720272   0.173689   3.299574   2.282647  10.809134   9.780673  10.637544  50.174869  -0.000501  19.621313   0.000820   4.576057   2.542056  -0.954378   3.582435  -3.691371  -9.362874  14.230437 -12.949038 -45.439689  -0.004036 -21.340551  -0.000982   3.968858  -5.236552  -0.760996 -22.743189  -0.948461 -11.690308  45.699814   0.015155   0.015334  -7.175105  -7.432804   4.574902 -22.276340  -0.005293  -0.011489 -21.062279  -0.128710   1.725356  48.528178   0.006595   0.006944 -19.421454   2.676933   2.669530  -2.089603  -0.000235   0.004009
 -2.396846   0.873638   4.193461   3.770759  -0.430972  -0.395712  14.936823  -0.124290  -2.648123   4.397081  -1.182919  -0.151806  -7.466127   0.733749   0.256047   3.186957   2.375474  11.098032   9.795778  10.575278  50.077837  -0.000588  19.517776   0.001099   4.588336   2.503222  -0.961964   3.435254  -3.828801  -9.743454  14.081573 -13.032317 -45.369136  -0.004516 -21.116258  -0.001030   3.905484  -5.256871  -0.744563 -23.487364  -0.714362 -11.694151  47.413392   0.017341   0.016743  -8.554503  -7.528650   4.427897 -24.054408  -0.007074  -0.015954 -21.604426  -0.185745   1.789666  49.628662   0.007407   0.008013 -20.533066   2.687081   2.755844  -1.741299  -0.000079   0.004295
 -2.396205   0.866480   4.191871   3.828980  -0.057568  -0.488256  15.368057  -0.174249  -2.665508   4.512744  -1.210909  -0.149461  -7.691934   0.745638   0.332098   3.071248   2.473512  11.399791   9.800433  10.525491  49.998030  -0.000653  19.422273   0.001319   4.599691   2.467069  -0.965879   3.285967  -3.970341 -10.122619  13.933817 -13.118688 -45.306033  -0.004887 -20.907463  -0.001033   3.844571  -5.275371  -0.728178 -24.179858  -0.483284 -11.749710  49.024766   0.019066   0.017500  -9.872290  -7.624764   4.287709 -26.030518  -0.008460  -0.020522 -22.162224  -0.232511   1.792818  50.815761   0.008484   0.009050 -21.934305   2.675000   2.782025  -5.495879  -0.003632  -0.008487
 -2.395640   0.858714   4.189664   3.981988   0.335754  -0.675576  15.917845  -0.203075  -2.568434   4.438020  -1.228449  -0.120744  -8.035632   0.804670   0.345728   2.925323   2.555365  11.831060   9.748785  10.297271  49.726493  -0.000821  19.124665   0.001993   4.577348   2.626365  -0.947017   3.119217  -4.216226 -10.598943  13.690801 -13.179398 -45.161924  -0.005805 -20.564305  -0.001075   3.730876  -5.267996  -0.765408 -25.282795  -0.322719 -11.725645  51.148851   0.021108   0.018344 -11.799084  -7.833547   4.029873 -24.511566  -0.003894  -0.012026 -23.228276  -0.238697   1.913788  52.616263   0.011706   0.012750 -23.240290   2.597198   2.884953  -8.782209  -0.002291  -0.018365
